<?xml version="1.0" encoding="UTF-8" standalone="no"?>
<!DOCTYPE svg PUBLIC "-//W3C//DTD SVG 1.1//EN"
 "http://www.w3.org/Graphics/SVG/1.1/DTD/svg11.dtd">
<!-- Generated by graphviz version 2.38.0 (20140413.2041)
 -->
<!-- Title: normalgit Pages: 1 -->
<svg width="473pt" height="152pt"
 viewBox="0.00 0.00 472.80 152.00" xmlns="http://www.w3.org/2000/svg" xmlns:xlink="http://www.w3.org/1999/xlink">
<g id="graph0" class="graph" transform="scale(1 1) rotate(0) translate(4 148)">
<title>normalgit</title>
<polygon fill="white" stroke="none" points="-4,4 -4,-148 468.795,-148 468.795,4 -4,4"/>
<!-- gh -->
<g id="node1" class="node"><title>gh</title>
<polygon fill="none" stroke="black" points="460.878,-60.5678 460.878,-83.4322 388.142,-99.5997 285.278,-99.5997 212.542,-83.4322 212.542,-60.5678 285.278,-44.4003 388.142,-44.4003 460.878,-60.5678"/>
<polygon fill="none" stroke="black" points="464.88,-57.3532 464.88,-86.6468 388.581,-103.607 284.839,-103.607 208.54,-86.6468 208.54,-57.3532 284.839,-40.3935 388.581,-40.3935 464.88,-57.3532"/>
<text text-anchor="start" x="314.924" y="-75.8" font-family="Helvetica,sans-Serif" font-weight="bold" font-size="14.00">GitHub</text>
<text text-anchor="start" x="263.648" y="-61.8" font-family="Helvetica,sans-Serif" font-size="14.00">&quot;ubermelon/website.git&quot;</text>
</g>
<!-- jessica -->
<g id="node2" class="node"><title>jessica</title>
<polygon fill="none" stroke="black" points="118.439,-144 115.439,-148 94.4392,-148 91.4392,-144 10.0052,-144 10.0052,-108 118.439,-108 118.439,-144"/>
<text text-anchor="start" x="40.8809" y="-129.8" font-family="Helvetica,sans-Serif" font-size="14.00">Jessica</text>
<text text-anchor="start" x="18.1138" y="-115.8" font-family="Helvetica,sans-Serif" font-size="14.00">~/</text>
<text text-anchor="start" x="30.1792" y="-115.8" font-family="Helvetica,sans-Serif" font-style="italic" font-size="14.00">uber&#45;website</text>
</g>
<!-- jessica&#45;&gt;gh -->
<g id="edge3" class="edge"><title>jessica&#45;&gt;gh</title>
<path fill="none" stroke="black" d="M128.271,-113.413C156.751,-107.727 191.274,-100.835 223.917,-94.3183"/>
<polygon fill="black" stroke="black" points="127.46,-110.006 118.339,-115.396 128.831,-116.87 127.46,-110.006"/>
<polygon fill="black" stroke="black" points="224.857,-97.6997 233.979,-92.3096 223.487,-90.8352 224.857,-97.6997"/>
<text text-anchor="start" x="146.444" y="-110.8" font-family="Helvetica,sans-Serif" font-size="14.00">&quot;origin&quot;</text>
</g>
<!-- jane -->
<g id="node3" class="node"><title>jane</title>
<polygon fill="none" stroke="black" points="101.758,-90 98.7578,-94 77.7578,-94 74.7578,-90 26.6866,-90 26.6866,-54 101.758,-54 101.758,-90"/>
<text text-anchor="start" x="49.043" y="-75.8" font-family="Helvetica,sans-Serif" font-size="14.00">Jane</text>
<text text-anchor="start" x="34.4551" y="-61.8" font-family="Helvetica,sans-Serif" font-style="italic" font-size="14.00">~/website</text>
</g>
<!-- jane&#45;&gt;gh -->
<g id="edge2" class="edge"><title>jane&#45;&gt;gh</title>
<path fill="none" stroke="black" d="M112.209,-72C136.413,-72 167.312,-72 198.359,-72"/>
<polygon fill="black" stroke="black" points="111.983,-68.5001 101.983,-72 111.983,-75.5001 111.983,-68.5001"/>
<polygon fill="black" stroke="black" points="198.436,-75.5001 208.436,-72 198.436,-68.5001 198.436,-75.5001"/>
<text text-anchor="start" x="146.444" y="-74.8" font-family="Helvetica,sans-Serif" font-size="14.00">&quot;origin&quot;</text>
</g>
<!-- jamie -->
<g id="node4" class="node"><title>jamie</title>
<polygon fill="none" stroke="black" points="128.667,-36 125.667,-40 104.667,-40 101.667,-36 -0.222939,-36 -0.222939,-0 128.667,-0 128.667,-36"/>
<text text-anchor="start" x="45.5498" y="-21.8" font-family="Helvetica,sans-Serif" font-size="14.00">Jamie</text>
<text text-anchor="start" x="8" y="-7.8" font-family="Helvetica,sans-Serif" font-style="italic" font-size="14.00">~/projects/website</text>
</g>
<!-- jamie&#45;&gt;gh -->
<g id="edge1" class="edge"><title>jamie&#45;&gt;gh</title>
<path fill="none" stroke="black" d="M138.775,-32.684C164.955,-37.9105 195.06,-43.9207 223.727,-49.6439"/>
<polygon fill="black" stroke="black" points="139.131,-29.1862 128.64,-30.6606 137.761,-36.0507 139.131,-29.1862"/>
<polygon fill="black" stroke="black" points="223.307,-53.1289 233.799,-51.6545 224.678,-46.2644 223.307,-53.1289"/>
<text text-anchor="start" x="146.444" y="-43.8" font-family="Helvetica,sans-Serif" font-size="14.00">&quot;origin&quot;</text>
</g>
</g>
</svg>
