<?xml version="1.0" encoding="UTF-8" standalone="no"?>
<!DOCTYPE svg PUBLIC "-//W3C//DTD SVG 1.1//EN"
 "http://www.w3.org/Graphics/SVG/1.1/DTD/svg11.dtd">
<!-- Generated by graphviz version 2.38.0 (20140413.2041)
 -->
<!-- Title: hbgit Pages: 1 -->
<svg width="500pt" height="152pt"
 viewBox="0.00 0.00 499.85 152.11" xmlns="http://www.w3.org/2000/svg" xmlns:xlink="http://www.w3.org/1999/xlink">
<g id="graph0" class="graph" transform="scale(1 1) rotate(0) translate(4 148.106)">
<title>hbgit</title>
<polygon fill="white" stroke="none" points="-4,4 -4,-148.106 495.847,-148.106 495.847,4 -4,4"/>
<!-- gh -->
<g id="node1" class="node"><title>gh</title>
<polygon fill="none" stroke="black" points="475.163,-101.121 475.163,-123.985 405.388,-140.153 306.712,-140.153 236.937,-123.985 236.937,-101.121 306.712,-84.9535 405.388,-84.9535 475.163,-101.121"/>
<polygon fill="none" stroke="black" points="479.156,-97.9342 479.156,-127.172 405.843,-144.16 306.257,-144.16 232.944,-127.172 232.944,-97.9342 306.257,-80.9467 405.843,-80.9467 479.156,-97.9342"/>
<text text-anchor="start" x="334.264" y="-116.353" font-family="Helvetica,sans-Serif" font-weight="bold" font-size="14.00">GitHub</text>
<text text-anchor="start" x="286.112" y="-102.353" font-family="Helvetica,sans-Serif" font-size="14.00">&quot;jane/lists&#45;exercise.git&quot;</text>
</g>
<!-- gh2 -->
<g id="node2" class="node"><title>gh2</title>
<polygon fill="none" stroke="black" points="487.65,-20.121 487.65,-42.9854 410.561,-59.153 301.539,-59.153 224.45,-42.9854 224.45,-20.121 301.539,-3.95346 410.561,-3.95346 487.65,-20.121"/>
<polygon fill="none" stroke="black" points="491.644,-16.8653 491.644,-46.2411 410.974,-63.1597 301.126,-63.1597 220.456,-46.2411 220.456,-16.8653 301.126,0.053297 410.974,0.053297 491.644,-16.8653"/>
<text text-anchor="start" x="334.264" y="-35.3532" font-family="Helvetica,sans-Serif" font-weight="bold" font-size="14.00">GitHub</text>
<text text-anchor="start" x="277.949" y="-21.3532" font-family="Helvetica,sans-Serif" font-size="14.00">&quot;jessica/lists&#45;exercise.git&quot;</text>
</g>
<!-- pair -->
<g id="node3" class="node"><title>pair</title>
<polygon fill="none" stroke="black" points="131.282,-89.5532 128.282,-93.5532 107.282,-93.5532 104.282,-89.5532 0.238875,-89.5532 0.238875,-53.5532 131.282,-53.5532 131.282,-89.5532"/>
<text text-anchor="start" x="14.0088" y="-75.3532" font-family="Helvetica,sans-Serif" font-size="14.00">HB Lab Machine</text>
<text text-anchor="start" x="8" y="-61.3532" font-family="Helvetica,sans-Serif" font-style="italic" font-size="14.00">~/src/lists&#45;exercise</text>
</g>
<!-- pair&#45;&gt;gh -->
<g id="edge1" class="edge"><title>pair&#45;&gt;gh</title>
<path fill="none" stroke="black" d="M141.445,-82.1748C168.471,-86.0182 199.777,-90.4706 229.95,-94.7617"/>
<polygon fill="black" stroke="black" points="141.851,-78.6974 131.458,-80.7544 140.866,-85.6276 141.851,-78.6974"/>
<polygon fill="black" stroke="black" points="229.738,-98.2667 240.131,-96.2097 230.724,-91.3365 229.738,-98.2667"/>
<text text-anchor="start" x="157.683" y="-93.3532" font-family="Helvetica,sans-Serif" font-size="14.00">&quot;jane&quot;</text>
</g>
<!-- pair&#45;&gt;gh2 -->
<g id="edge2" class="edge"><title>pair&#45;&gt;gh2</title>
<path fill="none" stroke="black" d="M141.405,-61.1964C165.963,-57.7889 194.059,-53.8905 221.63,-50.0652"/>
<polygon fill="black" stroke="black" points="140.882,-57.7352 131.458,-62.5764 141.844,-64.6688 140.882,-57.7352"/>
<polygon fill="black" stroke="black" points="222.332,-53.5014 231.756,-48.6602 221.37,-46.5678 222.332,-53.5014"/>
<text text-anchor="start" x="149.521" y="-62.3532" font-family="Helvetica,sans-Serif" font-size="14.00">&quot;jessica&quot;</text>
</g>
</g>
</svg>
